<svg width="400" height="200" viewBox="0 0 200 100" xmlns="http://www.w3.org/2000/svg">
<defs><style>line,path{stroke-linecap:round;stroke-width:1.5};@import url('https://fonts.googleapis.com/css2?family=Sono&amp;display=swap&amp;text=img');</style></defs>
<text x="20" y="65" font-family="Sono" font-size="48" font-weight="bold" fill="#97F" stroke="#FFF" stroke-width="0.25">img</text>
<g transform="translate(110, 15)">
<ellipse cx="35" cy="34" rx="25" ry="23" fill="#234" stroke="#FFF" stroke-width="2"/>
<polygon points="10,10 15,25 25,15 " fill="#234"/>
<polygon points="60,10 55,25 45,15" fill="#234"/>
<polygon points="12,12 16,23 23,16" fill="#DDD"/>
<polygon points="58,12 54,23 47,16" fill="#DDD"/>
<ellipse cx="27" cy="30" rx="4" ry="6" fill="#1DA"/>
<ellipse cx="43" cy="30" rx="4" ry="6" fill="#1DA"/>
<ellipse cx="27" cy="31" rx="1.5" ry="4" fill="#000"/>
<ellipse cx="43" cy="31" rx="1.5" ry="4" fill="#000"/>
<polygon points="35,42 32,38 38,38" fill="#DDD"/>
<path d="M 35 43 Q 30 47 25 45" stroke="#DDD" fill="none"/>
<path d="M 35 43 Q 40 47 45 45" stroke="#DDD" fill="none"/>
<line x1="10" y1="37" x2="22" y2="39" stroke="#DDD"/>
<line x1="12" y1="42" x2="22" y2="42" stroke="#DDD"/>
<line x1="14" y1="47" x2="22" y2="45" stroke="#DDD"/>
<line x1="48" y1="39" x2="60" y2="37" stroke="#DDD"/>
<line x1="48" y1="42" x2="58" y2="42" stroke="#DDD"/>
<line x1="48" y1="45" x2="56" y2="47" stroke="#DDD"/>
</g>
</svg>